<?xml version="1.0" standalone="no"?>
<!DOCTYPE svg PUBLIC "-//W3C//DTD SVG 20010904//EN"
 "http://www.w3.org/TR/2001/REC-SVG-20010904/DTD/svg10.dtd">
<svg version="1.0" xmlns="http://www.w3.org/2000/svg"
 width="1300.000000pt" height="1390.000000pt" viewBox="0 0 1300.000000 1390.000000"
 preserveAspectRatio="xMidYMid meet">
<metadata>
Created by potrace 1.16, written by Peter Selinger 2001-2019
</metadata>
<g transform="translate(0.000000,1390.000000) scale(0.100000,-0.100000)"
fill="#000000" stroke="none">
<path d="M3610 13435 l0 -405 828 -1 827 -1 -475 -158 c-261 -87 -480 -159
-486 -159 -5 -1 -20 31 -33 70 l-23 72 -149 -149 c-81 -81 -147 -149 -145
-151 1 -1 81 -14 177 -28 96 -13 188 -27 206 -30 l32 -6 -24 72 c-14 40 -24
73 -22 74 10 8 1186 395 1200 395 10 0 28 7 41 15 21 14 23 19 13 45 -6 17
-15 30 -19 30 -4 0 -8 162 -8 360 l0 360 -970 0 -970 0 0 -405z m1870 0 l0
-325 -900 0 -900 0 0 325 0 325 900 0 900 0 0 -325z"/>
<path d="M3900 13600 c-8 -5 -28 -10 -43 -10 -41 0 -84 -26 -104 -63 -25 -46
-25 -182 0 -219 36 -52 128 -57 172 -8 23 26 32 110 15 150 -22 54 -85 74
-140 45 -36 -18 -39 -6 -7 30 15 19 35 28 67 32 25 3 51 12 58 21 22 29 12 41
-18 22z m-10 -140 c11 -11 21 -30 22 -42 5 -81 -16 -118 -67 -118 -48 0 -67
20 -73 78 -4 44 -1 54 21 76 31 31 70 33 97 6z"/>
<path d="M5140 13435 c0 -158 1 -165 20 -165 18 0 20 7 20 58 0 48 4 62 23 80
13 12 27 22 33 22 5 0 34 -36 64 -80 41 -59 61 -79 78 -80 12 0 22 3 22 7 0 3
-27 43 -60 89 -33 45 -63 89 -66 97 -3 9 19 37 63 76 66 59 67 61 38 61 -25 0
-45 -15 -105 -75 -41 -41 -78 -75 -82 -75 -5 0 -8 34 -8 75 0 68 -2 75 -20 75
-19 0 -20 -7 -20 -165z"/>
<path d="M4800 13513 c-26 -10 -50 -36 -50 -55 0 -25 14 -23 44 7 29 28 67 32
90 9 31 -31 13 -53 -52 -63 -77 -12 -109 -48 -90 -103 16 -46 97 -56 143 -18
9 8 14 6 19 -5 7 -19 56 -20 56 -1 0 8 -6 16 -14 19 -11 5 -14 24 -14 79 1 40
-2 82 -5 94 -12 35 -79 54 -127 37z"/>
<path d="M4010 13400 c22 -62 43 -117 46 -122 3 -5 0 -22 -6 -39 -9 -21 -19
-29 -37 -29 -18 0 -24 -5 -21 -17 5 -25 43 -28 65 -6 17 17 123 288 123 313 0
6 -8 10 -18 10 -14 0 -24 -18 -41 -72 -44 -137 -39 -135 -75 -28 -27 77 -37
96 -54 98 -21 3 -20 -1 18 -108z"/>
<path d="M4240 13390 c0 -100 3 -120 15 -120 11 0 15 11 15 37 0 21 8 45 17
56 17 18 19 18 68 -38 37 -42 57 -56 72 -53 20 3 16 9 -33 67 l-55 64 52 53
c50 50 52 54 28 54 -17 0 -42 -17 -79 -55 -30 -30 -58 -55 -62 -55 -4 0 -8 25
-8 55 0 42 -3 55 -15 55 -12 0 -15 -20 -15 -120z"/>
<path d="M4484 13465 c-3 -25 -3 -79 1 -120 l7 -75 64 0 c73 0 119 18 127 51
7 26 -7 65 -25 72 -10 4 -11 7 0 18 6 7 12 25 12 40 0 42 -32 59 -112 59 l-67
0 -7 -45z"/>
<path d="M3294 13660 c-75 -30 -67 -131 11 -146 18 -3 37 -13 40 -22 28 -70
295 -868 295 -882 0 -10 -7 -23 -15 -30 -33 -27 -5 -105 43 -121 7 -2 109
-264 227 -582 l215 -578 -27 -23 c-54 -47 -23 -124 52 -131 20 -2 38 -5 40 -7
1 -2 37 -84 79 -183 99 -230 293 -624 389 -787 l75 -128 -2341 -2 -2342 -3 0
-395 0 -395 2516 -5 2517 -5 -129 -105 c-71 -58 -133 -106 -138 -108 -4 -1
-29 23 -55 54 l-46 56 -25 -53 c-76 -168 -143 -324 -140 -327 5 -5 379 80 389
89 6 5 -8 29 -32 58 -23 27 -42 53 -42 58 0 16 331 278 358 283 26 5 27 8 32
83 l5 77 57 -41 c49 -34 56 -43 48 -59 -17 -32 -11 -70 15 -95 28 -29 52 -31
98 -9 l34 16 594 -492 c327 -271 606 -504 621 -519 l27 -26 -514 -575 c-283
-316 -514 -581 -514 -588 -1 -8 5 -12 12 -10 8 2 243 260 523 575 280 314 513
573 518 574 5 2 253 -199 552 -447 387 -320 541 -453 537 -464 -16 -43 -14
-60 11 -85 23 -23 33 -26 79 -23 59 3 68 -2 267 -153 372 -282 670 -631 878
-1028 l55 -104 55 -1168 56 -1168 -27 -21 c-33 -26 -36 -76 -8 -111 27 -34 86
-32 117 5 13 15 24 33 24 41 0 26 -22 63 -46 75 -17 10 -25 24 -28 54 -3 23
-28 543 -56 1156 -28 613 -53 1124 -55 1135 -7 34 -141 271 -219 389 -213 318
-477 589 -813 833 -123 88 -133 98 -133 127 0 51 -61 99 -104 83 -19 -7 20
-38 -594 471 -463 384 -521 436 -510 450 7 9 120 138 252 285 177 199 236 271
227 280 -7 7 -14 7 -19 2 -182 -208 -496 -555 -501 -555 -14 0 -1261 1042
-1261 1054 0 28 -41 66 -72 66 -30 0 -50 11 -140 79 l-48 35 0 298 0 298 -243
0 -244 0 -67 113 c-91 153 -315 602 -409 822 -70 165 -76 183 -65 211 17 45 4
81 -38 102 -36 18 -37 20 -249 592 l-213 574 29 27 c50 47 27 121 -40 131 -23
3 -35 34 -178 451 l-152 448 18 35 c26 48 12 90 -35 110 -18 8 -35 14 -36 13
-2 0 -13 -4 -24 -9z m1559 -3820 l86 -120 -34 0 c-46 0 -81 -17 -94 -47 -15
-32 -14 -33 9 -33 11 0 20 4 20 9 0 19 32 41 59 41 33 0 51 -16 51 -46 0 -18
-7 -23 -42 -29 -85 -13 -118 -38 -118 -91 0 -47 90 -72 139 -38 22 16 24 16
33 0 11 -20 58 -22 58 -2 0 8 -7 16 -15 20 -11 4 -15 23 -15 78 l0 73 85 -90
84 -90 1 -77 0 -78 -2525 0 -2525 0 0 320 0 320 2329 0 2328 0 86 -120z m307
-102 l-1 -223 -50 55 c-99 107 -245 297 -293 378 -6 9 31 12 168 12 l176 0 0
-222z"/>
<path d="M934 9701 c-66 -40 -73 -154 -13 -210 47 -43 157 -19 172 39 7 29
-20 26 -49 -5 -41 -44 -100 -28 -118 33 -7 22 -6 22 85 22 l92 0 -6 43 c-11
82 -92 121 -163 78z"/>
<path d="M1953 9708 c-12 -6 -26 -24 -32 -39 -9 -26 -8 -29 10 -29 10 0 19 4
19 9 0 19 32 41 59 41 33 0 51 -16 51 -47 0 -18 -7 -23 -37 -28 -80 -13 -92
-17 -104 -32 -20 -23 -16 -83 6 -99 27 -20 94 -18 118 3 18 17 19 17 28 0 12
-20 59 -23 59 -3 0 8 -7 16 -15 20 -12 4 -15 24 -15 88 0 46 -4 88 -8 94 -21
32 -94 44 -139 22z"/>
<path d="M2788 9704 c-31 -16 -40 -64 -13 -64 8 0 15 4 15 9 0 19 32 41 59 41
33 0 51 -16 51 -47 0 -18 -7 -23 -37 -28 -67 -11 -78 -14 -97 -28 -27 -20 -27
-84 -1 -103 27 -20 94 -18 118 3 18 17 19 17 28 0 12 -20 59 -23 59 -3 0 8 -7
16 -15 20 -12 4 -15 24 -15 88 0 46 -4 88 -8 94 -23 35 -97 44 -144 18z"/>
<path d="M3502 9704 c-67 -47 -69 -188 -3 -224 27 -14 92 -12 112 3 18 13 39
50 39 66 0 16 -17 13 -32 -4 -33 -40 -41 -45 -68 -45 -39 0 -60 32 -60 91 0
51 19 83 58 94 17 5 29 -1 51 -24 33 -35 51 -40 51 -13 -1 57 -95 93 -148 56z"/>
<path d="M3964 9701 c-47 -28 -67 -105 -45 -164 17 -44 51 -67 99 -67 54 0 77
12 97 50 14 27 14 30 -1 30 -9 0 -27 -11 -40 -25 -41 -44 -100 -28 -118 33 -7
22 -6 22 85 22 l92 0 -6 43 c-11 82 -92 121 -163 78z"/>
<path d="M4242 9704 c-12 -8 -22 -10 -22 -5 0 6 -9 11 -20 11 -19 0 -20 -7
-20 -165 0 -158 1 -165 20 -165 18 0 20 7 20 55 l0 54 30 -13 c71 -29 130 10
138 93 6 65 -3 97 -35 127 -30 28 -78 32 -111 8z m93 -47 c23 -32 19 -113 -5
-137 -46 -46 -110 -4 -110 72 0 48 14 76 43 87 29 11 55 3 72 -22z"/>
<path d="M170 9590 c0 -113 1 -120 20 -120 18 0 20 7 20 55 l0 55 60 0 60 0 0
-55 c0 -48 2 -55 20 -55 19 0 20 7 20 120 0 113 -1 120 -20 120 -17 0 -20 -7
-20 -44 0 -25 -4 -47 -9 -50 -4 -3 -31 -3 -60 1 l-51 6 0 43 c0 37 -3 44 -20
44 -19 0 -20 -7 -20 -120z"/>
<path d="M404 9693 c4 -10 25 -66 46 -124 32 -91 36 -110 26 -130 -6 -13 -22
-25 -34 -27 -24 -4 -30 -30 -8 -38 22 -8 54 13 71 46 17 33 105 269 105 282 0
4 -9 8 -20 8 -15 0 -24 -16 -45 -82 -14 -46 -28 -90 -31 -98 -4 -9 -20 25 -38
80 -28 80 -36 96 -56 98 -19 3 -22 0 -16 -15z"/>
<path d="M1178 9619 c-3 -80 -6 -93 -25 -109 -31 -25 -29 -42 4 -38 37 4 55
44 61 135 l5 73 48 0 49 0 0 -106 c0 -95 2 -105 18 -102 15 3 17 18 20 121 l3
117 -90 0 -89 0 -4 -91z"/>
<path d="M1420 9589 l0 -121 74 4 c88 4 116 22 116 75 0 51 -29 73 -95 73
l-55 0 0 45 c0 38 -3 45 -20 45 -19 0 -20 -7 -20 -121z"/>
<path d="M1650 9590 c0 -113 1 -120 20 -120 18 0 20 7 20 55 l0 55 60 0 60 0
0 -55 c0 -48 2 -55 20 -55 19 0 20 7 20 120 0 113 -1 120 -20 120 -17 0 -20
-7 -20 -44 0 -25 -5 -48 -10 -51 -6 -4 -33 -4 -60 0 l-50 7 0 44 c0 37 -3 44
-20 44 -19 0 -20 -7 -20 -120z"/>
<path d="M2192 9694 c-26 -18 -30 -75 -7 -94 12 -10 13 -16 3 -27 -6 -8 -14
-34 -18 -59 -6 -42 -5 -45 14 -42 16 2 22 13 27 42 7 46 21 56 77 56 l42 0 0
-50 c0 -43 3 -50 20 -50 19 0 20 7 20 120 l0 120 -78 0 c-54 0 -84 -5 -100
-16z"/>
<path d="M3010 9590 c0 -113 1 -120 20 -120 18 0 20 7 20 55 l0 55 60 0 60 0
0 -55 c0 -48 2 -55 20 -55 19 0 20 7 20 120 0 112 -1 120 -19 120 -17 0 -20
-8 -23 -47 l-3 -48 -55 0 -55 0 -3 48 c-3 39 -6 47 -23 47 -18 0 -19 -8 -19
-120z"/>
<path d="M4440 9590 l0 -120 150 0 150 0 0 120 c0 113 -1 120 -20 120 -19 0
-20 -7 -20 -100 l0 -100 -45 0 -45 0 0 100 c0 93 -1 100 -20 100 -19 0 -20 -7
-20 -100 l0 -100 -45 0 -45 0 0 100 c0 93 -1 100 -20 100 -19 0 -20 -7 -20
-120z"/>
<path d="M2744 13631 c-2 -2 -4 -42 -4 -88 0 -67 3 -83 15 -83 9 0 15 9 15 25
0 22 3 25 24 19 54 -13 91 80 48 120 -17 14 -85 20 -98 7z"/>
<path d="M8510 12035 l0 -395 414 0 c228 0 416 -4 418 -8 2 -5 131 -75 288
-157 157 -81 317 -164 355 -185 39 -20 136 -72 217 -114 l148 -77 -35 -70 -35
-69 210 0 211 0 -41 58 c-23 31 -78 108 -123 170 l-81 113 -33 -66 c-18 -36
-38 -65 -43 -65 -9 0 -571 291 -790 408 l-105 57 1653 3 1652 2 0 395 0 395
-2140 0 -2140 0 0 -395z m4200 0 l0 -325 -2060 0 -2060 0 0 325 0 325 2060 0
2060 0 0 -325z"/>
<path d="M9283 12184 c-6 -17 5 -315 12 -322 2 -3 11 -2 20 1 12 5 15 23 15
82 l0 75 90 0 90 0 0 -81 c0 -71 2 -80 18 -77 15 3 17 19 17 168 0 149 -2 165
-17 168 -16 3 -18 -5 -18 -67 l0 -71 -90 0 -90 0 0 70 c0 64 -2 70 -20 70 -11
0 -23 -7 -27 -16z"/>
<path d="M11067 12148 c-2 -29 -2 -106 1 -171 4 -101 7 -117 21 -115 13 3 17
19 19 81 l3 77 89 0 90 0 0 -80 c0 -73 2 -80 20 -80 19 0 20 7 20 170 0 163
-1 170 -20 170 -18 0 -20 -7 -20 -70 l0 -70 -90 0 -89 0 -3 67 c-2 53 -7 68
-19 71 -13 2 -17 -8 -22 -50z"/>
<path d="M8685 12085 c-27 -26 -31 -40 -14 -50 5 -4 21 5 34 19 40 43 113 29
103 -21 -2 -12 -20 -21 -63 -29 -64 -13 -95 -39 -95 -80 0 -56 85 -85 139 -48
22 16 24 16 33 0 11 -20 58 -22 58 -2 0 8 -7 16 -15 20 -12 4 -15 24 -15 91 0
106 -14 125 -90 125 -41 0 -56 -5 -75 -25z"/>
<path d="M8900 12100 c0 -6 15 -34 34 -62 l35 -51 -40 -58 c-21 -32 -39 -60
-39 -63 0 -17 42 -2 57 19 51 73 45 71 80 21 21 -29 40 -46 53 -46 27 0 26 6
-20 71 l-39 56 39 57 c34 48 37 58 23 63 -11 4 -25 -4 -45 -27 -15 -19 -28
-38 -28 -42 0 -19 -19 -5 -44 32 -24 37 -66 56 -66 30z"/>
<path d="M9769 12094 c-8 -9 -38 -53 -66 -98 l-52 -81 -1 93 c0 85 -1 92 -20
92 -19 0 -20 -7 -20 -115 l0 -115 25 0 c21 0 36 16 85 93 l60 92 0 -98 c0 -88
2 -98 18 -95 15 3 17 17 17 123 0 102 -2 120 -16 123 -9 1 -22 -5 -30 -14z"/>
<path d="M9897 12104 c-4 -4 -7 -61 -7 -126 0 -108 2 -119 18 -116 13 2 18 15
20 56 l3 52 60 0 59 0 0 -56 c0 -47 3 -55 18 -52 15 3 17 17 17 123 0 106 -2
120 -17 123 -15 3 -18 -4 -18 -47 l0 -51 -59 0 -60 0 -3 47 c-3 44 -15 62 -31
47z"/>
<path d="M10188 12090 c-36 -28 -51 -72 -45 -127 10 -93 107 -136 176 -77 32
27 41 54 18 54 -7 0 -23 -11 -35 -25 -39 -45 -98 -28 -116 33 -7 22 -6 22 85
22 l92 0 -6 43 c-11 83 -107 127 -169 77z"/>
<path d="M10463 12102 c-21 -3 -23 -9 -23 -66 0 -88 -9 -128 -32 -133 -24 -7
-24 -43 0 -43 40 0 71 73 72 168 l0 43 48 -3 47 -3 3 -102 c2 -83 6 -103 17
-103 8 0 15 6 15 13 0 6 2 60 3 120 2 70 0 107 -7 108 -27 3 -123 4 -143 1z"/>
<path d="M11672 11988 c3 -101 6 -123 18 -123 11 0 16 14 18 53 l3 52 60 0 59
0 0 -56 c0 -47 3 -55 18 -52 15 3 17 17 17 123 0 106 -2 120 -17 123 -15 3
-18 -4 -18 -47 l0 -51 -60 0 -60 0 0 50 c0 44 -3 50 -20 50 -20 0 -20 -5 -18
-122z"/>
<path d="M11960 12083 c-79 -71 -36 -223 62 -223 56 0 107 32 108 68 0 19 -19
14 -52 -13 -16 -14 -38 -25 -48 -25 -23 0 -57 29 -65 58 -6 22 -5 22 84 22
l91 0 0 26 c0 98 -109 151 -180 87z"/>
<path d="M12220 12048 c0 -95 -10 -140 -32 -146 -23 -6 -24 -42 0 -42 42 1 62
39 69 136 l6 74 43 0 43 0 3 -102 c3 -95 4 -103 23 -103 19 0 20 7 20 120 l0
120 -87 3 -88 3 0 -63z"/>
<path d="M12460 11984 l0 -127 75 5 c87 6 115 23 115 73 0 51 -20 69 -87 75
l-58 5 -3 48 c-3 39 -6 47 -23 47 -18 0 -19 -8 -19 -126z"/>
<path d="M10672 11983 l3 -118 29 -3 c49 -6 116 8 137 29 22 22 25 67 5 94
-10 14 -31 21 -73 25 l-58 5 -3 43 c-3 34 -7 42 -23 42 -19 0 -19 -6 -17 -117z"/>
<path d="M11402 11983 c3 -110 4 -118 23 -118 14 0 38 28 83 95 l62 95 0 -98
c0 -88 2 -98 18 -95 15 3 17 18 20 121 l3 117 -26 0 c-20 0 -35 -16 -82 -87
l-58 -88 -3 88 c-3 79 -5 87 -23 87 -19 0 -19 -6 -17 -117z"/>
<path d="M11962 11510 c-42 -18 -59 -122 -24 -153 26 -24 79 -22 92 2 29 55 0
116 -52 109 -38 -6 -31 14 10 24 17 5 34 13 37 18 8 12 -32 12 -63 0z"/>
<path d="M11015 11419 c-4 -29 -13 -53 -21 -56 -19 -7 -18 -53 1 -53 8 0 15 7
15 15 0 11 12 15 50 15 38 0 50 -4 50 -15 0 -8 5 -15 10 -15 6 0 10 11 10 25
0 14 -4 25 -10 25 -5 0 -10 25 -10 55 l0 55 -44 0 -44 0 -7 -51z"/>
<path d="M2000 11292 c0 -26 -3 -29 -27 -24 -32 6 -53 -18 -53 -63 0 -41 21
-67 53 -67 22 0 27 -5 27 -24 0 -15 6 -24 15 -24 9 0 15 9 15 24 0 19 5 24 27
24 32 0 53 25 53 65 0 44 -17 67 -50 67 -22 0 -29 5 -32 22 -5 34 -28 34 -28
0z"/>
<path d="M3447 11263 c-4 -3 -7 -25 -7 -48 0 -26 -6 -48 -15 -55 -16 -13 -21
-50 -6 -50 5 0 11 7 15 15 4 10 20 15 51 15 33 0 45 -4 45 -15 0 -8 7 -15 15
-15 17 0 21 35 5 45 -5 3 -10 31 -10 61 l0 54 -43 0 c-24 0 -47 -3 -50 -7z"/>
<path d="M11597 11159 c-9 -5 -27 -20 -40 -32 -15 -15 -113 -51 -304 -111
-178 -57 -280 -93 -277 -101 4 -9 -971 -1189 -1062 -1285 -19 -21 -31 -25 -60
-22 -20 3 -46 -1 -59 -8 -23 -12 -54 11 -569 411 l-545 424 -1 42 c0 33 -6 46
-26 62 -57 45 -137 7 -132 -62 2 -31 -25 -66 -288 -383 -420 -506 -503 -608
-504 -619 0 -5 8 -11 18 -13 10 -2 36 -20 57 -42 l38 -39 -29 -35 c-16 -19
-113 -122 -216 -229 -174 -180 -209 -224 -175 -215 22 5 442 449 445 470 3 14
-12 37 -44 69 -35 35 -45 51 -37 61 30 40 491 598 612 743 l142 169 59 1 59 1
548 -427 c504 -393 548 -430 558 -465 13 -50 61 -78 106 -62 36 13 53 41 54
93 0 38 28 73 536 680 294 352 538 647 541 655 3 9 103 46 269 98 145 46 267
83 271 82 4 0 18 -11 32 -25 52 -52 136 -22 136 49 0 57 -64 94 -113 65z"/>
<path d="M8173 11090 c-39 -16 -52 -117 -20 -157 5 -7 24 -13 43 -13 56 0 82
60 48 109 -13 18 -24 22 -50 19 -25 -3 -31 -1 -23 8 6 7 24 16 40 19 16 4 29
11 29 16 0 11 -38 11 -67 -1z"/>
<path d="M8568 10998 c-3 -29 -11 -54 -17 -56 -14 -5 -15 -52 -1 -52 6 0 10 7
10 15 0 11 12 15 50 15 38 0 50 -4 50 -15 0 -8 5 -15 11 -15 8 0 10 13 5 38
-3 20 -6 56 -6 80 l0 42 -49 0 -48 0 -5 -52z"/>
<path d="M7918 10698 c-3 -29 -11 -54 -17 -56 -14 -5 -15 -52 -1 -52 6 0 10 7
10 15 0 11 12 15 50 15 39 0 50 -3 50 -16 0 -9 6 -14 13 -12 15 6 22 48 8 48
-7 0 -11 23 -11 55 l0 55 -49 0 -48 0 -5 -52z"/>
<path d="M6214 9681 c-9 -9 -4 -181 6 -181 6 0 10 13 10 29 0 28 2 29 33 24
42 -6 59 13 61 68 1 49 -21 70 -72 66 -18 -1 -35 -4 -38 -6z"/>
<path d="M11420 9593 c0 -55 4 -93 10 -93 6 0 10 14 10 30 0 27 3 30 24 24 57
-14 97 58 62 111 -14 21 -24 25 -61 23 l-45 -1 0 -94z"/>
<path d="M11584 9640 c-4 -27 -13 -55 -20 -61 -16 -13 -18 -45 -4 -54 6 -3 13
1 16 9 9 22 104 23 104 1 0 -8 5 -15 10 -15 6 0 10 14 10 30 0 17 -4 30 -10
30 -5 0 -10 25 -10 55 l0 55 -45 0 -44 0 -7 -50z"/>
<path d="M2873 9173 c-34 -7 -53 -41 -53 -98 0 -59 12 -75 56 -75 56 0 82 60
48 109 -13 18 -23 22 -52 19 l-35 -4 23 18 c12 10 31 18 41 18 10 0 19 5 19
10 0 10 -8 11 -47 3z"/>
<path d="M2988 9133 l-28 -4 0 -90 c0 -72 3 -89 15 -89 9 0 15 9 15 25 0 21 5
25 29 25 34 0 61 30 61 68 0 22 -41 73 -57 71 -4 -1 -20 -4 -35 -6z"/>
<path d="M3128 9129 c-10 -5 -18 -17 -18 -25 0 -13 2 -13 21 0 24 16 49 11 49
-10 0 -8 -10 -14 -23 -14 -35 0 -59 -22 -55 -51 3 -21 9 -24 43 -25 79 -3 85
-4 85 -19 0 -8 5 -15 10 -15 6 0 10 7 10 15 0 11 12 15 50 15 38 0 50 -4 50
-15 0 -8 7 -15 15 -15 17 0 21 35 5 45 -5 3 -10 31 -10 61 l0 54 -50 0 -50 0
0 -44 c0 -44 -22 -82 -41 -71 -5 4 -9 25 -9 48 0 23 -4 47 -8 54 -11 17 -54
24 -74 12z"/>
<path d="M3848 9133 l-28 -4 0 -90 c0 -72 3 -89 15 -89 9 0 15 9 15 25 0 21 5
25 30 25 62 0 82 102 24 128 -14 7 -26 11 -27 11 -1 -1 -14 -4 -29 -6z"/>
<path d="M4433 8990 c-12 -5 -30 -21 -39 -35 -14 -22 -16 -32 -7 -56 11 -29 5
-38 -448 -569 -252 -296 -459 -544 -459 -549 0 -6 6 -11 13 -10 6 0 218 243
471 540 l458 539 42 0 c88 0 120 97 45 135 -32 17 -44 18 -76 5z"/>
<path d="M7321 8899 c-75 -30 -65 -130 14 -145 95 -17 137 105 49 142 -18 8
-35 14 -36 13 -2 0 -14 -5 -27 -10z"/>
<path d="M7990 8865 c-17 -21 -7 -29 18 -14 20 13 52 7 52 -10 0 -5 -16 -12
-35 -15 -46 -9 -61 -36 -37 -66 14 -18 24 -21 43 -15 13 5 44 8 69 9 l45 1 9
53 c8 45 13 52 33 52 21 0 23 -4 23 -55 0 -30 5 -55 10 -55 6 0 10 28 10 65
l0 65 -44 0 -43 0 -7 -52 c-7 -47 -18 -67 -37 -68 -3 0 -9 23 -12 50 -3 28 -9
55 -12 60 -10 16 -71 12 -85 -5z"/>
<path d="M3359 7759 c-17 -17 -20 -29 -16 -62 7 -50 -7 -79 -81 -171 -66 -80
-215 -207 -380 -323 -116 -81 -509 -323 -525 -323 -18 0 -125 -91 -202 -171
-171 -178 -315 -416 -459 -758 -61 -143 -63 -151 -43 -151 8 0 30 41 51 94 52
131 182 394 249 503 117 188 293 385 394 439 177 96 516 313 679 435 121 91
278 247 319 316 26 45 33 51 56 46 35 -7 87 22 95 51 7 29 -2 60 -22 81 -23
23 -90 19 -115 -6z"/>
<path d="M3088 7753 l-28 -4 0 -90 c0 -72 3 -89 15 -89 10 0 15 10 15 28 0 26
3 28 29 24 34 -5 61 26 61 70 0 29 -31 69 -52 67 -7 -1 -25 -4 -40 -6z"/>
<path d="M8490 7250 c-6 -4 -21 -5 -31 -3 -18 5 -19 -1 -19 -86 0 -74 3 -91
15 -91 9 0 15 9 15 25 0 21 5 25 29 25 39 0 61 24 61 64 0 48 -39 85 -70 66z"/>
<path d="M9561 7251 c-8 -5 -20 -7 -28 -4 -10 4 -13 -14 -13 -86 0 -54 4 -91
10 -91 6 0 10 11 10 24 0 21 5 25 31 24 40 -1 63 23 63 68 0 26 -7 42 -23 55
-26 21 -30 22 -50 10z"/>
<path d="M9247 7243 c-4 -3 -7 -23 -7 -44 0 -21 -7 -44 -15 -53 -17 -16 -20
-56 -5 -56 6 0 10 7 10 15 0 11 12 15 50 15 36 0 52 -4 56 -15 9 -24 24 -17
24 10 0 14 -4 25 -10 25 -5 0 -10 25 -10 55 l0 55 -43 0 c-24 0 -47 -3 -50 -7z"/>
<path d="M5572 6987 c-26 -27 -28 -64 -6 -95 15 -21 -2 -70 -360 -1015 -206
-545 -377 -999 -381 -1007 -3 -10 -19 -15 -46 -15 -33 0 -46 -6 -65 -28 -28
-32 -30 -54 -9 -84 22 -31 64 -43 105 -29 42 13 60 52 44 94 -9 24 36 150 372
1037 l381 1010 34 7 c64 13 87 72 48 122 -27 35 -86 36 -117 3z"/>
<path d="M1545 5775 c-27 -26 -31 -54 -14 -86 8 -16 -14 -72 -127 -317 -146
-318 -563 -1233 -635 -1394 -40 -91 -45 -98 -72 -98 -34 0 -87 -48 -87 -80 0
-11 11 -32 25 -45 43 -44 125 -27 139 29 8 32 5 31 341 56 657 48 1093 62
1815 58 l585 -3 27 -27 c38 -39 85 -38 123 2 26 27 35 30 91 30 99 0 635 -77
652 -94 3 -3 -152 -426 -344 -939 l-348 -933 -34 -1 c-73 -2 -116 -94 -75
-163 44 -75 145 -61 173 24 12 38 -3 89 -34 115 -9 8 -13 17 -8 20 6 3 166
425 357 936 191 512 349 932 351 934 11 12 1132 -221 1999 -415 259 -58 481
-107 495 -108 14 -2 38 -15 52 -29 36 -36 72 -35 109 2 35 36 37 61 5 97 -18
21 -32 28 -61 28 -36 0 -49 -9 -80 -57 -9 -14 -47 -7 -315 54 -642 146 -1464
321 -1945 415 -132 25 -242 48 -243 49 -2 2 66 191 152 419 86 229 156 421
156 426 0 6 -6 10 -12 10 -8 0 -79 -178 -172 -425 -87 -234 -160 -425 -162
-425 -2 0 -81 13 -176 29 -231 39 -405 61 -488 61 -63 0 -71 3 -98 30 -40 39
-83 40 -120 3 l-27 -28 -680 -1 c-773 -1 -1233 -19 -1872 -72 -146 -12 -204
-14 -207 -6 -4 11 203 475 549 1229 103 226 204 445 223 488 34 74 37 77 69
77 43 0 83 38 83 78 0 65 -87 96 -135 47z"/>
<path d="M2423 5764 c-8 -21 2 -169 12 -169 6 0 11 12 13 26 3 21 8 26 34 26
36 0 58 24 58 66 0 53 -16 68 -67 65 -25 -2 -47 -8 -50 -14z"/>
<path d="M9620 3623 c0 -55 4 -93 10 -93 6 0 10 14 10 30 0 27 3 30 24 24 56
-14 97 58 62 111 -14 21 -23 24 -61 23 l-45 -2 0 -93z"/>
<path d="M6617 3093 c-3 -5 -8 -29 -11 -55 -4 -26 -11 -50 -17 -53 -5 -4 -9
-18 -9 -33 1 -25 2 -25 14 -9 18 23 106 25 106 2 0 -8 5 -15 10 -15 6 0 10 11
10 24 0 14 -4 28 -10 31 -5 3 -10 31 -10 61 l0 54 -39 0 c-22 0 -42 -3 -44 -7z"/>
<path d="M7413 2784 c-8 -21 2 -169 12 -169 6 0 11 12 13 26 3 22 7 25 31 21
51 -7 80 66 46 116 -13 17 -24 21 -57 19 -22 -1 -42 -7 -45 -13z"/>
<path d="M3247 893 c1789 -2 4717 -2 6505 0 1789 1 326 2 -3252 2 -3578 0
-5041 -1 -3253 -2z"/>
</g>
</svg>
